<?xml version="1.0" encoding="UTF-8"?>
<svg width="12px" height="12px" viewBox="0 0 12 12" version="1.1" xmlns="http://www.w3.org/2000/svg" xmlns:xlink="http://www.w3.org/1999/xlink">
    <title>546E7CD2-A37F-4876-9D26-9F448D3E9294</title>
    <g id="Page-1" stroke="none" stroke-width="1" fill="none" fill-rule="evenodd">
        <g id="01A-My-Teams" transform="translate(-24.000000, -101.000000)" fill="#7F7F7F">
            <g id="Side-Nav/TaaS" transform="translate(0.000000, 80.000000)">
                <g id="Menu-item" transform="translate(24.000000, 17.000000)">
                    <g id="Menu-icon/01" transform="translate(0.000000, 4.000000)">
                        <path d="M1.90426407,1.05573593 L6.005,5.156 L10.1067027,1.05573593 C10.3149824,0.847456309 10.6382916,0.824314129 10.8721334,0.986309391 L10.9552309,1.05573593 C11.1895454,1.29005051 11.1895454,1.66994949 10.9552309,1.90426407 L10.9552309,1.90426407 L6.854,6.005 L10.9552309,10.1067027 C11.1895454,10.3410173 11.1895454,10.7209163 10.9552309,10.9552309 C10.7209163,11.1895454 10.3410173,11.1895454 10.1067027,10.9552309 L6.005,6.854 L1.90426407,10.9552309 C1.69598445,11.1635105 1.37267517,11.1866527 1.1388334,11.0246574 L1.05573593,10.9552309 C0.821421356,10.7209163 0.821421356,10.3410173 1.05573593,10.1067027 L1.05573593,10.1067027 L5.156,6.005 L1.05573593,1.90426407 C0.821421356,1.66994949 0.821421356,1.29005051 1.05573593,1.05573593 C1.29005051,0.821421356 1.66994949,0.821421356 1.90426407,1.05573593 Z" id="Combined-Shape"></path>
                    </g>
                </g>
            </g>
        </g>
    </g>
</svg>