<?xml version="1.0" encoding="UTF-8"?>
<svg width="24px" height="24px" viewBox="0 0 24 24" version="1.1" xmlns="http://www.w3.org/2000/svg" xmlns:xlink="http://www.w3.org/1999/xlink">
    <title>18BD5E75-FE90-43AD-B9DF-03F02151C404</title>
    <g id="Page-1" stroke="none" stroke-width="1" fill="none" fill-rule="evenodd">
        <g id="Header/desktop" transform="translate(-1135.000000, -28.000000)" fill="#D8D8D8">
            <path d="M1138,46 C1139.65685,46 1141,47.3431458 1141,49 C1141,50.6568542 1139.65685,52 1138,52 C1136.34315,52 1135,50.6568542 1135,49 C1135,47.3431458 1136.34315,46 1138,46 Z M1147,46 C1148.65685,46 1150,47.3431458 1150,49 C1150,50.6568542 1148.65685,52 1147,52 C1145.34315,52 1144,50.6568542 1144,49 C1144,47.3431458 1145.34315,46 1147,46 Z M1156,46 C1157.65685,46 1159,47.3431458 1159,49 C1159,50.6568542 1157.65685,52 1156,52 C1154.34315,52 1153,50.6568542 1153,49 C1153,47.3431458 1154.34315,46 1156,46 Z M1138,37 C1139.65685,37 1141,38.3431458 1141,40 C1141,41.6568542 1139.65685,43 1138,43 C1136.34315,43 1135,41.6568542 1135,40 C1135,38.3431458 1136.34315,37 1138,37 Z M1147,37 C1148.65685,37 1150,38.3431458 1150,40 C1150,41.6568542 1148.65685,43 1147,43 C1145.34315,43 1144,41.6568542 1144,40 C1144,38.3431458 1145.34315,37 1147,37 Z M1156,37 C1157.65685,37 1159,38.3431458 1159,40 C1159,41.6568542 1157.65685,43 1156,43 C1154.34315,43 1153,41.6568542 1153,40 C1153,38.3431458 1154.34315,37 1156,37 Z M1138,28 C1139.65685,28 1141,29.3431458 1141,31 C1141,32.6568542 1139.65685,34 1138,34 C1136.34315,34 1135,32.6568542 1135,31 C1135,29.3431458 1136.34315,28 1138,28 Z M1147,28 C1148.65685,28 1150,29.3431458 1150,31 C1150,32.6568542 1148.65685,34 1147,34 C1145.34315,34 1144,32.6568542 1144,31 C1144,29.3431458 1145.34315,28 1147,28 Z M1156,28 C1157.65685,28 1159,29.3431458 1159,31 C1159,32.6568542 1157.65685,34 1156,34 C1154.34315,34 1153,32.6568542 1153,31 C1153,29.3431458 1154.34315,28 1156,28 Z" id="Combined-Shape"></path>
        </g>
    </g>
</svg>