<svg t="1604745846997" class="icon" viewBox="0 0 1024 1024" version="1.1" xmlns="http://www.w3.org/2000/svg" p-id="2769" width="20" height="20"><path d="M156.16 170.88m14.08 0l682.88 0q14.08 0 14.08 14.08l0 42.88q0 14.08-14.08 14.08l-682.88 0q-14.08 0-14.08-14.08l0-42.88q0-14.08 14.08-14.08Z" fill="#909399" p-id="2770"></path><path d="M156.16 474.24m14.08 0l682.88 0q14.08 0 14.08 14.08l0 42.88q0 14.08-14.08 14.08l-682.88 0q-14.08 0-14.08-14.08l0-42.88q0-14.08 14.08-14.08Z" fill="#909399" p-id="2771"></path><path d="M156.16 776.96m14.08 0l682.88 0q14.08 0 14.08 14.08l0 42.88q0 14.08-14.08 14.08l-682.88 0q-14.08 0-14.08-14.08l0-42.88q0-14.08 14.08-14.08Z" fill="#909399" p-id="2772"></path></svg>