<svg t="1604904948022" class="icon" viewBox="0 0 1024 1024" version="1.1" xmlns="http://www.w3.org/2000/svg" p-id="2294" width="20" height="20"><path d="M580.266667 512L396.8 328.533333c-17.066667-17.066667-17.066667-42.666667 0-59.733333 17.066667-17.066667 42.666667-17.066667 59.733333 0l213.333334 213.333333c17.066667 17.066667 17.066667 42.666667 0 59.733334l-213.333334 213.333333c-17.066667 17.066667-42.666667 17.066667-59.733333 0-17.066667-17.066667-17.066667-42.666667 0-59.733333l183.466667-183.466667z" fill="#137D60" p-id="2295"></path><path d="M580.266667 512L396.8 328.533333c-17.066667-17.066667-17.066667-42.666667 0-59.733333 17.066667-17.066667 42.666667-17.066667 59.733333 0l213.333334 213.333333c17.066667 17.066667 17.066667 42.666667 0 59.733334l-213.333334 213.333333c-17.066667 17.066667-42.666667 17.066667-59.733333 0-17.066667-17.066667-17.066667-42.666667 0-59.733333l183.466667-183.466667z" fill="#137D60" p-id="2296"></path></svg>