<?xml version="1.0" encoding="UTF-8"?>
<svg width="20px" height="20px" viewBox="0 0 20 20" version="1.1" xmlns="http://www.w3.org/2000/svg" xmlns:xlink="http://www.w3.org/1999/xlink">
    <title>E86D4166-2C37-4C16-BFE1-1186F79A7E55</title>
    <defs>
        <filter id="filter-1">
            <feColorMatrix in="SourceGraphic" type="matrix" values="0 0 0 0 0.023529 0 0 0 0 0.839216 0 0 0 0 0.627451 0 0 0 1.000000 0"></feColorMatrix>
        </filter>
    </defs>
    <g id="Page-1" stroke="none" stroke-width="1" fill="none" fill-rule="evenodd">
        <g id="01A-My-Teams" transform="translate(-20.000000, -132.000000)">
            <g id="Side-Nav/TaaS" transform="translate(0.000000, 80.000000)">
                <g id="Menu-item/open/normal" transform="translate(0.000000, 50.000000)">
                    <g id="ic-user-24" transform="translate(20.000000, 2.000000)" filter="url(#filter-1)">
                        <g>
                            <path d="M3.75,7.5 C2.36928813,7.5 1.25,6.38071187 1.25,5 C1.25,3.61928813 2.36928813,2.5 3.75,2.5 C5.13071187,2.5 6.25,3.61928813 6.25,5 C6.25,5.66304122 5.9866079,6.29892601 5.51776695,6.76776695 C5.04892601,7.2366079 4.41304122,7.5 3.75,7.5 Z M3.75,3.75 C3.05964406,3.75 2.5,4.30964406 2.5,5 C2.5,5.69035594 3.05964406,6.25 3.75,6.25 C4.44035594,6.25 5,5.69035594 5,5 C5,4.30964406 4.44035594,3.75 3.75,3.75 Z" id="Shape" fill="#06d6a0" fill-rule="nonzero"></path>
                            <path d="M2.5,18.75 C2.18499698,18.7495411 1.91942752,18.5150261 1.88,18.2025 L1.32333333,13.75 L0.625,13.75 C0.279822031,13.75 0,13.470178 0,13.125 L0,11.25 C0.00229630373,9.17988409 1.67988409,7.5022963 3.75,7.5 C4.09517797,7.5 4.375,7.77982203 4.375,8.125 C4.375,8.47017797 4.09517797,8.75 3.75,8.75 C2.36928813,8.75 1.25,9.86928813 1.25,11.25 L1.25,12.5 L1.875,12.5 C2.19000302,12.5004589 2.45557248,12.7349739 2.495,13.0475 L3.05166667,17.5 L5,17.5 C5.34517797,17.5 5.625,17.779822 5.625,18.125 C5.625,18.470178 5.34517797,18.75 5,18.75 L2.5,18.75 Z" id="Path" fill="#555555" fill-rule="nonzero"></path>
                            <path d="M16.25,7.5 C14.8692881,7.5 13.75,6.38071187 13.75,5 C13.75,3.61928813 14.8692881,2.5 16.25,2.5 C17.6307119,2.5 18.75,3.61928813 18.75,5 C18.75,5.66304122 18.4866079,6.29892601 18.017767,6.76776695 C17.548926,7.2366079 16.9130412,7.5 16.25,7.5 Z M16.25,3.75 C15.5596441,3.75 15,4.30964406 15,5 C15,5.69035594 15.5596441,6.25 16.25,6.25 C16.9403559,6.25 17.5,5.69035594 17.5,5 C17.5,4.30964406 16.9403559,3.75 16.25,3.75 Z" id="Shape" fill="#555555" fill-rule="nonzero"></path>
                            <path d="M15,18.75 C14.654822,18.75 14.375,18.470178 14.375,18.125 C14.375,17.779822 14.654822,17.5 15,17.5 L16.9483333,17.5 L17.505,13.0475 C17.5444275,12.7349739 17.809997,12.5004589 18.125,12.5 L18.75,12.5 L18.75,11.25 C18.75,9.86928813 17.6307119,8.75 16.25,8.75 C15.904822,8.75 15.625,8.47017797 15.625,8.125 C15.625,7.77982203 15.904822,7.5 16.25,7.5 C18.3201159,7.5022963 19.9977037,9.17988409 20,11.25 L20,13.125 C20,13.470178 19.720178,13.75 19.375,13.75 L18.6766667,13.75 L18.12,18.2025 C18.0805725,18.5150261 17.815003,18.7495411 17.5,18.75 L15,18.75 Z" id="Path" fill="#555555" fill-rule="nonzero"></path>
                            <path d="M10,6.25 C8.27411016,6.25 6.875,4.85088984 6.875,3.125 C6.875,1.39911016 8.27411016,0 10,0 C11.7258898,0 13.125,1.39911016 13.125,3.125 C13.1231628,4.85012828 11.7251283,6.2481628 10,6.25 L10,6.25 Z M10,1.25 C8.96446609,1.25 8.125,2.08946609 8.125,3.125 C8.125,4.16053391 8.96446609,5 10,5 C11.0355339,5 11.875,4.16053391 11.875,3.125 C11.8740811,2.08984696 11.035153,1.25091891 10,1.25 L10,1.25 Z" id="Shape" fill="#555555" fill-rule="nonzero"></path>
                            <path d="M8.125,20.0000238 C7.80237719,20.0027967 7.53108522,19.7586339 7.5,19.4375 L6.93416667,13.75 L5.625,13.75 C5.27982203,13.75 5,13.470178 5,13.125 L5,11.25 C5,8.48857625 7.23857625,6.25 10,6.25 C12.7614237,6.25 15,8.48857625 15,11.25 L15,13.125 C15,13.470178 14.720178,13.75 14.375,13.75 L13.0658333,13.75 L12.5,19.4375 C12.4689148,19.7586339 12.1976228,20.0027967 11.875,20.0000238 L8.125,20.0000238 Z M11.3091667,18.75 L11.8783333,13.0625 C11.909305,12.7426464 12.1786521,12.4989342 12.5,12.5 L13.75,12.5 L13.75,11.25 C13.75,9.17893219 12.0710678,7.5 10,7.5 C7.92893219,7.5 6.25,9.17893219 6.25,11.25 L6.25,12.5 L7.5,12.5 C7.82134785,12.4989342 8.09069498,12.7426464 8.12166667,13.0625 L8.69,18.75 L11.3091667,18.75 Z" id="Shape" fill="#555555" fill-rule="nonzero"></path>
                        </g>
                    </g>
                </g>
            </g>
        </g>
    </g>
</svg>